mtllib leaf.mtl
g leaf_stem
v -0.316748 1.554449 -8.936732
v -0.318864 1.511704 -8.931876
v -0.321367 1.554340 -8.916613
v -0.323608 1.508133 -8.917000
v -0.319136 1.509715 -8.901987
v -0.317050 1.551764 -8.896382
v -0.315207 1.594624 -8.916451
v -0.311371 1.592054 -8.896221
v -0.311100 1.594740 -8.936569
v -0.258946 2.032845 -8.933271
v -0.271556 2.031770 -8.928189
v -0.258721 2.036002 -8.913064
v -0.275657 2.035245 -8.913263
v -0.271828 2.029782 -8.898300
v -0.259313 2.030161 -8.892921
v -0.242601 2.027760 -8.912930
v -0.247340 2.024237 -8.898054
v -0.247068 2.026226 -8.927942
v -0.289935 1.547045 -8.936399
v -0.287264 1.587375 -8.936237
v -0.283427 1.584805 -8.916007
v -0.285617 1.544468 -8.916168
v -0.287535 1.584689 -8.895887
v -0.290237 1.544360 -8.896050
v -0.290550 1.500648 -8.916667
v -0.294649 1.504171 -8.901740
v -0.294377 1.506159 -8.931628
v -0.306895 1.505732 -8.937008
v -0.307494 1.499830 -8.916866
v -0.307263 1.503048 -8.896659
v -0.303694 1.547614 -8.889491
v -0.299498 1.587924 -8.889329
v -0.303291 1.551195 -8.943290
v -0.299136 1.591505 -8.943128
v -0.281371 1.971772 -8.933896
v -0.283203 1.951631 -8.934039
v -0.287064 1.971677 -8.913778
v -0.288896 1.951535 -8.913921
v -0.281739 1.969087 -8.893547
v -0.283571 1.948946 -8.893690
v -0.248314 1.964287 -8.933564
v -0.250145 1.944145 -8.933706
v -0.266613 1.948335 -8.940598
v -0.264781 1.968477 -8.940455
v -0.242988 1.961696 -8.913333
v -0.248681 1.961602 -8.893214
v -0.244819 1.941555 -8.913476
v -0.250513 1.941461 -8.893358
v -0.265270 1.964897 -8.886656
v -0.267103 1.944756 -8.886799
v -0.271686 1.883738 -8.928061
v -0.275475 1.883045 -8.913302
v -0.272054 1.880719 -8.898450
v -0.250052 1.878839 -8.927782
v -0.260808 1.881791 -8.932857
v -0.246630 1.876513 -8.912932
v -0.250420 1.875820 -8.898173
v -0.261298 1.877766 -8.893376
vt 0.133052 0.837676
vt 0.065225 0.844546
vt 0.127404 0.806174
vt 0.053328 0.822101
vt 0.051292 0.796554
vt 0.118444 0.774459
vt 0.193606 0.800648
vt 0.186762 0.767780
vt 0.196804 0.833336
vt 0.950000 0.947909
vt 0.927680 0.951209
vt 0.937190 0.914122
vt 0.918030 0.929852
vt 0.903096 0.911261
vt 0.904100 0.890410
vt 0.897370 0.849354
vt 0.923792 0.855966
vt 0.891445 0.872456
vt 0.899080 0.825325
vt 0.922592 0.820076
vt 0.126451 0.883955
vt 0.190607 0.878460
vt 0.188767 0.911920
vt 0.123753 0.916026
vt 0.190303 0.945050
vt 0.125324 0.948260
vt 0.053406 0.918412
vt 0.059860 0.945156
vt 0.060693 0.890933
vt 0.057515 0.867218
vt 0.037987 0.877124
vt 0.031933 0.843627
vt 0.013959 0.863803
vt 0.000000 0.841239
vt 0.009268 0.820321
vt 0.053328 0.822101
vt 0.031066 0.809130
vt 0.065225 0.844546
vt 0.130267 0.971729
vt 0.135649 0.996068
vt 0.065648 0.992052
vt 0.057026 0.968710
vt 0.125324 0.948260
vt 0.059860 0.945156
vt 0.195267 0.967187
vt 0.190303 0.945050
vt 0.202369 0.989302
vt 0.126451 0.883955
vt 0.060693 0.890933
vt 0.057515 0.867218
vt 0.131096 0.860806
vt 0.194451 0.855632
vt 0.190607 0.878460
vt 0.838741 0.996168
vt 0.799114 1.000000
vt 0.822589 0.967023
vt 0.790748 0.968609
vt 0.810730 0.935602
vt 0.780681 0.938269
vt 0.798318 0.819078
vt 0.765736 0.824129
vt 0.771391 0.795431
vt 0.805217 0.791877
vt 0.774883 0.765821
vt 0.810907 0.763911
vt 0.909548 0.803828
vt 0.908926 0.781503
vt 0.899080 0.825325
vt 0.798318 0.819078
vt 0.792771 0.850940
vt 0.793338 0.883314
vt 0.762444 0.856812
vt 0.763841 0.888452
vt 0.765736 0.824129
vt 0.801120 0.909669
vt 0.770616 0.913546
vt 0.793338 0.883314
vt 0.763841 0.888452
vt 0.904100 0.890410
vt 0.891445 0.872456
vt 0.665564 0.807704
vt 0.662772 0.782914
vt 0.657685 0.758232
vt 0.676237 0.966517
vt 0.669467 0.936575
vt 0.681950 0.993188
vt 0.662947 0.847723
vt 0.665233 0.827563
vt 0.662947 0.847723
vt 0.660786 0.872932
vt 0.660620 0.897786
vt 0.663979 0.917176
vt 0.660620 0.897786
vn -0.816863 0.052467 -0.571498
vn -0.795309 -0.188477 -0.573226
vn -0.994025 0.092412 -0.001616
vn -0.972352 -0.225589 -0.016378
vn -0.807795 -0.208075 0.548452
vn -0.823577 0.044926 0.562432
vn -0.988637 0.138453 0.007439
vn -0.807459 0.114368 0.575810
vn -0.812028 0.126175 -0.566849
vn 0.053444 0.329126 -0.940982
vn -0.715320 0.315397 -0.623572
vn 0.214137 0.972958 0.064235
vn -0.923848 0.378275 0.006316
vn -0.722865 0.297576 0.620920
vn 0.030659 0.304186 0.950346
vn 0.981476 0.182171 0.012072
vn 0.214137 0.972958 0.064235
vn 0.761289 0.145604 0.629179
vn 0.771613 0.161051 -0.612621
vn 0.053444 0.329126 -0.940982
vn 0.809885 -0.102831 -0.574577
vn 0.843163 -0.087591 -0.527286
vn 0.991696 -0.114636 0.005017
vn 0.994030 -0.092359 0.001562
vn 0.828973 -0.095110 0.548074
vn 0.804269 -0.113036 0.583416
vn 0.906045 -0.419002 -0.012143
vn 0.736569 -0.365579 0.566080
vn 0.743237 -0.340210 -0.573135
vn -0.059933 -0.420294 -0.903542
vn 0.743237 -0.340210 -0.573135
vn -0.214009 -0.972990 -0.064179
vn 0.906045 -0.419002 -0.012143
vn 0.736569 -0.365579 0.566080
vn -0.086664 -0.458125 0.884653
vn -0.972352 -0.225589 -0.016378
vn -0.807795 -0.208075 0.548452
vn -0.795309 -0.188477 -0.573226
vn -0.036518 -0.074639 0.994848
vn -0.823577 0.044926 0.562432
vn -0.807795 -0.208075 0.548452
vn -0.086664 -0.458125 0.884653
vn 0.804269 -0.113036 0.583416
vn 0.736569 -0.365579 0.566080
vn 0.023732 0.007664 0.999689
vn 0.828973 -0.095110 0.548074
vn -0.807459 0.114368 0.575810
vn 0.809885 -0.102831 -0.574577
vn 0.743237 -0.340210 -0.573135
vn -0.059933 -0.420294 -0.903542
vn -0.008883 -0.060213 -0.996455
vn 0.053798 0.023421 -0.996587
vn 0.843163 -0.087591 -0.527286
vn -0.742849 0.149988 -0.649852
vn -0.793190 -0.112933 -0.595586
vn -0.985861 0.157045 0.006488
vn -0.991396 -0.114662 -0.024787
vn -0.740540 0.138701 0.654973
vn -0.823075 -0.113778 0.556419
vn 0.787146 0.006251 -0.613995
vn 0.752672 -0.061454 -0.652944
vn -0.057737 -0.090705 -0.992505
vn 0.044614 0.082941 -0.993860
vn -0.793190 -0.112933 -0.595586
vn -0.742849 0.149988 -0.649852
vn 0.053444 0.329126 -0.940982
vn -0.715320 0.315397 -0.623572
vn 0.771613 0.161051 -0.612621
vn 0.787146 0.006251 -0.613995
vn 0.997890 -0.026204 0.012538
vn 0.767559 -0.001496 0.638341
vn 0.997476 -0.040799 0.002025
vn 0.753905 -0.053752 0.652200
vn 0.752672 -0.061454 -0.652944
vn 0.021744 0.069013 0.995687
vn -0.077688 -0.083977 0.991736
vn 0.767559 -0.001496 0.638341
vn 0.753905 -0.053752 0.652200
vn 0.030659 0.304186 0.950346
vn 0.761289 0.145604 0.629179
vn -0.812787 0.059007 -0.576648
vn -0.995690 0.071533 -0.010589
vn -0.832424 0.059839 0.547829
vn -0.995690 0.071533 -0.010589
vn -0.832424 0.059839 0.547829
vn -0.812787 0.059007 -0.576648
vn 0.816176 -0.079771 -0.569317
vn 0.009142 0.001051 -0.998270
vn 0.816176 -0.079771 -0.569317
vn 0.992634 -0.106141 -0.006355
vn 0.821696 -0.090764 0.559647
vn -0.018875 -0.007076 0.998109
vn 0.821696 -0.090764 0.559647
usemtl leaf_stem Merged Material
f 1/1/1 2/2/2 3/3/3
f 4/4/4 3/3/3 2/2/2
f 3/3/3 4/4/4 5/5/5
f 5/5/5 6/6/6 3/3/3
f 7/7/7 3/3/3 8/8/8
f 6/6/6 8/8/8 3/3/3
f 9/9/9 1/1/1 7/7/7
f 3/3/3 7/7/7 1/1/1
f 10/10/10 11/11/11 12/12/12
f 13/13/13 12/12/12 11/11/11
f 12/12/12 13/13/13 14/14/14
f 14/14/14 15/15/15 12/12/12
f 16/16/16 12/17/17 17/18/18
f 15/15/15 17/18/18 12/17/17
f 18/19/19 10/20/20 12/17/17
f 12/17/17 16/16/16 18/19/19
f 19/21/21 20/22/22 21/23/23
f 21/23/23 22/24/24 19/21/21
f 22/24/24 21/23/23 23/25/25
f 23/25/25 24/26/26 22/24/24
f 25/27/27 22/24/24 26/28/28
f 24/26/26 26/28/28 22/24/24
f 27/29/29 19/21/21 22/24/24
f 22/24/24 25/27/27 27/29/29
f 28/30/30 27/31/31 29/32/32
f 25/33/33 29/32/32 27/31/31
f 29/32/32 25/33/33 26/34/34
f 26/34/34 30/35/35 29/32/32
f 4/36/36 29/32/32 5/37/37
f 30/35/35 5/37/37 29/32/32
f 2/38/38 28/30/30 29/32/32
f 29/32/32 4/36/36 2/38/38
f 31/39/39 6/40/40 5/41/41
f 5/41/41 30/42/42 31/39/39
f 31/39/39 30/42/42 24/43/43
f 26/44/44 24/43/43 30/42/42
f 32/45/45 31/39/39 23/46/46
f 24/43/43 23/46/46 31/39/39
f 8/47/47 6/40/40 32/45/45
f 31/39/39 32/45/45 6/40/40
f 19/48/48 27/49/49 28/50/50
f 28/50/50 33/51/51 19/48/48
f 33/51/51 28/50/50 2/2/2
f 2/2/2 1/1/1 33/51/51
f 34/52/52 33/51/51 1/1/1
f 1/1/1 9/9/9 34/52/52
f 20/53/53 19/48/48 33/51/51
f 33/51/51 34/52/52 20/53/53
f 35/54/54 36/55/55 37/56/56
f 38/57/57 37/56/56 36/55/55
f 37/56/56 38/57/57 39/58/58
f 40/59/59 39/58/58 38/57/57
f 13/13/13 37/56/56 14/14/14
f 39/58/58 14/14/14 37/56/56
f 11/11/11 35/54/54 37/56/56
f 37/56/56 13/13/13 11/11/11
f 41/60/60 42/61/61 43/62/62
f 43/62/62 44/63/63 41/60/60
f 44/63/63 43/62/62 36/64/64
f 36/64/64 35/65/65 44/63/63
f 10/66/66 44/63/63 11/67/67
f 35/65/65 11/67/67 44/63/63
f 18/68/68 41/60/60 44/63/63
f 44/63/63 10/66/66 18/68/68
f 41/69/69 18/19/19 45/70/70
f 16/16/16 45/70/70 18/19/19
f 45/70/70 16/16/16 17/18/18
f 17/18/18 46/71/71 45/70/70
f 47/72/72 45/70/70 46/71/71
f 46/71/71 48/73/73 47/72/72
f 42/74/74 41/69/69 45/70/70
f 45/70/70 47/72/72 42/74/74
f 39/58/58 40/59/59 49/75/75
f 50/76/76 49/75/75 40/59/59
f 49/75/75 50/76/76 46/77/77
f 48/78/78 46/77/77 50/76/76
f 15/79/79 49/75/75 17/80/80
f 46/77/77 17/80/80 49/75/75
f 14/14/14 39/58/58 15/79/79
f 49/75/75 15/79/79 39/58/58
f 51/81/81 9/9/9 52/82/82
f 7/7/7 52/82/82 9/9/9
f 53/83/83 52/82/82 7/7/7
f 7/7/7 8/8/8 53/83/83
f 38/57/57 52/84/84 40/59/59
f 53/85/85 40/59/59 52/84/84
f 36/55/55 51/86/86 38/57/57
f 52/84/84 38/57/57 51/86/86
f 20/53/53 34/52/52 54/87/87
f 55/88/88 54/87/87 34/52/52
f 34/52/52 9/9/9 55/88/88
f 51/81/81 55/88/88 9/9/9
f 55/88/88 51/81/81 43/62/62
f 36/64/64 43/62/62 51/81/81
f 54/87/87 55/88/88 42/61/61
f 43/62/62 42/61/61 55/88/88
f 54/89/89 42/74/74 47/72/72
f 47/72/72 56/90/90 54/89/89
f 56/90/90 47/72/72 57/91/91
f 48/73/73 57/91/91 47/72/72
f 56/90/90 57/91/91 21/23/23
f 23/25/25 21/23/23 57/91/91
f 54/89/89 56/90/90 20/22/22
f 21/23/23 20/22/22 56/90/90
f 58/92/92 53/85/85 8/47/47
f 8/47/47 32/45/45 58/92/92
f 57/93/93 58/92/92 32/45/45
f 32/45/45 23/46/46 57/93/93
f 48/78/78 50/76/76 58/92/92
f 58/92/92 57/93/93 48/78/78
f 50/76/76 40/59/59 53/85/85
f 53/85/85 58/92/92 50/76/76
g leaf_body
v -0.316820 1.569797 -8.855840
v -0.324648 1.542432 -8.848969
v -0.319780 1.465405 -8.749217
v -0.331098 1.464923 -8.788005
v -0.333818 1.276102 -8.700125
v -0.319152 1.276726 -8.632951
v -0.308462 1.465887 -8.788005
v -0.304486 1.277351 -8.700125
v -0.310526 1.543033 -8.848969
v -0.284634 1.571167 -8.920715
v -0.280845 1.467063 -8.918533
v -0.323258 1.276552 -8.901647
v -0.308462 1.465887 -9.020735
v -0.304486 1.277351 -9.103169
v -0.310526 1.543033 -8.963002
v -0.316820 1.569797 -8.957262
v -0.319780 1.465405 -9.059524
v -0.319152 1.276726 -9.170343
v -0.331098 1.464923 -9.020735
v -0.333818 1.276102 -9.103169
v -0.324648 1.542432 -8.963002
v -0.325162 1.569442 -8.906551
v -0.334870 1.464763 -8.904370
v -0.338707 1.275894 -8.901647
v -0.254556 0.107049 -8.826551
v -0.266274 0.167282 -8.816181
v -0.263156 0.106683 -8.893907
v -0.248775 0.029210 -8.893447
v -0.254556 0.107049 -8.961262
v -0.266274 0.167282 -8.972347
v -0.245957 0.107415 -8.893907
v -0.251832 0.167897 -8.972347
v -0.251832 0.167897 -8.816181
v -0.315833 1.604594 -8.907278
v -0.296886 0.658195 -8.897209
v -0.278127 0.658993 -8.638971
v -0.260427 0.341053 -8.732788
v -0.280264 0.340208 -8.895287
v -0.260427 0.341053 -9.057784
v -0.278127 0.658993 -9.155445
v -0.271900 0.340564 -9.111950
v -0.283372 0.340076 -9.057784
v -0.307536 0.657741 -9.155445
v -0.292831 0.658367 -9.241525
v -0.283372 0.340076 -8.732788
v -0.307536 0.657741 -8.638971
v -0.312437 0.657533 -8.897209
v -0.287196 0.339913 -8.895287
v -0.271900 0.340564 -8.678622
v -0.292831 0.658367 -8.552891
v -0.311994 0.988956 -8.899294
v -0.293594 0.989739 -8.639265
v -0.293594 0.989739 -9.159323
v -0.325158 0.988396 -9.159323
v -0.309376 0.989067 -9.246000
v -0.325158 0.988396 -8.639265
v -0.330418 0.988172 -8.899294
v -0.309376 0.989067 -8.552589
vt 0.842302 0.420607
vt 0.831298 0.435281
vt 0.763585 0.436557
vt 0.777713 0.447353
vt 0.667982 0.481540
vt 0.646709 0.460715
vt 0.772386 0.421460
vt 0.657913 0.433376
vt 0.827147 0.411652
vt 0.854009 0.374148
vt 0.799895 0.354978
vt 0.691842 0.328959
vt 0.816300 0.298221
vt 0.726642 0.220753
vt 0.850733 0.342851
vt 0.866060 0.350839
vt 0.823643 0.276567
vt 0.738302 0.183532
vt 0.865965 0.540497
vt 0.882036 0.557002
vt 0.815316 0.647892
vt 0.841192 0.677100
vt 0.876750 0.485268
vt 0.886988 0.471763
vt 0.865643 0.449807
vt 0.821652 0.492179
vt 0.740630 0.563025
vt 0.777713 0.447353
vt 0.667982 0.481540
vt 0.831298 0.435281
vt 0.185326 0.937633
vt 0.209902 0.911611
vt 0.209534 0.968472
vt 0.173501 0.995622
vt 0.232868 1.000000
vt 0.264785 0.983431
vt 0.043373 0.167661
vt 0.000000 0.156414
vt 0.052863 0.129504
vt 0.088419 0.132012
vt 0.066301 0.219960
vt 0.033730 0.205861
vt 0.033022 0.205137
vt 0.886988 0.471763
vt 0.876750 0.485268
vt 0.865643 0.449807
vt 0.881440 0.436247
vt 0.880525 0.435217
vt 0.845561 0.427182
vt 0.854009 0.374148
vt 0.875367 0.387520
vt 0.846003 0.412989
vt 0.850733 0.342851
vt 0.866060 0.350839
vt 0.350501 0.242465
vt 0.315165 0.388441
vt 0.151017 0.291558
vt 0.173983 0.199551
vt 0.043373 0.167661
vt 0.197488 0.107748
vt 0.088419 0.132012
vt 0.389593 0.098357
vt 0.393993 0.987846
vt 0.374495 0.962332
vt 0.554952 0.895001
vt 0.586653 0.934050
vt 0.403259 0.050000
vt 0.205576 0.076738
vt 0.052863 0.129504
vt 0.232868 1.000000
vt 0.264785 0.983431
vt 0.259670 0.812504
vt 0.372269 0.658500
vt 0.461920 0.778617
vt 0.316664 0.887782
vt 0.209534 0.968472
vt 0.209902 0.911611
vt 0.143442 0.322767
vt 0.304584 0.438238
vt 0.342807 0.617301
vt 0.372269 0.658500
vt 0.240116 0.786984
vt 0.259670 0.812504
vt 0.533972 0.288106
vt 0.496504 0.435440
vt 0.575637 0.145236
vt 0.707285 0.777806
vt 0.739693 0.816194
vt 0.589932 0.097034
vt 0.519875 0.543977
vt 0.612358 0.663878
vt 0.490695 0.493387
vt 0.519875 0.543977
vn 0.135105 0.758848 0.634448
vn -0.978243 0.166022 0.110026
vn -0.013913 0.529090 0.846462
vn -0.993127 0.066552 0.076788
vn -0.995790 0.004245 0.070787
vn -0.017193 0.314556 0.947305
vn 0.993495 -0.018058 0.096280
vn 0.997873 0.027325 0.011396
vn 0.938355 0.183385 0.287205
vn 0.965523 0.253631 -0.008007
vn 0.997220 -0.046683 -0.000254
vn 0.998276 -0.008453 0.000763
vn 0.992383 -0.017774 -0.107180
vn 0.997849 0.027894 -0.012147
vn 0.906919 0.204321 -0.363839
vn -0.202854 0.725441 -0.655143
vn -0.012988 0.511127 -0.857443
vn -0.016573 0.299295 -0.952248
vn -0.993217 0.064457 -0.077419
vn -0.012988 0.511127 -0.857443
vn -0.995787 0.002829 -0.070901
vn -0.016573 0.299295 -0.952248
vn -0.978897 0.161901 -0.110342
vn -0.202854 0.725441 -0.655143
vn -0.986797 0.151195 -0.000082
vn -0.997550 0.039015 -0.000093
vn -0.998247 -0.011419 -0.000001
vn -0.993127 0.066552 0.076788
vn -0.995790 0.004245 0.070787
vn -0.978243 0.166022 0.110026
vn 0.027029 -0.645747 0.760860
vn -0.985228 -0.137087 0.084613
vn -0.988968 -0.136271 0.000012
vn 0.042990 -0.997380 0.003552
vn 0.027224 -0.651211 -0.756182
vn -0.985104 -0.138022 -0.084541
vn 0.997783 0.066551 -0.000309
vn 0.042990 -0.997380 0.003552
vn 0.027224 -0.651211 -0.756182
vn 0.996027 0.067494 -0.001301
vn 0.996032 0.067415 0.001430
vn 0.027029 -0.645747 0.760860
vn 0.027029 -0.645747 0.760860
vn -0.202854 0.725441 -0.655143
vn -0.978897 0.161901 -0.110342
vn -0.986797 0.151195 -0.000082
vn 0.180003 0.970934 0.146674
vn 0.180003 0.970934 0.146674
vn 0.135105 0.758848 0.634448
vn 0.965523 0.253631 -0.008007
vn 0.180003 0.970934 0.146674
vn 0.135105 0.758848 0.634448
vn 0.906919 0.204321 -0.363839
vn -0.202854 0.725441 -0.655143
vn 0.996762 0.055610 -0.000007
vn 0.997258 0.045451 -0.006171
vn 0.996615 0.053070 -0.023857
vn 0.994953 0.081835 -0.000175
vn 0.997783 0.066551 -0.000309
vn 0.996591 0.053363 0.024202
vn 0.996027 0.067494 -0.001301
vn 0.997258 0.045437 0.006253
vn 0.021816 -0.392914 -0.917480
vn -0.990941 -0.103298 -0.063185
vn -0.993559 -0.072354 -0.065056
vn 0.002838 -0.158360 -0.985668
vn 0.002838 -0.158360 -0.985668
vn 0.021816 -0.392914 -0.917480
vn 0.027224 -0.651211 -0.756182
vn 0.027224 -0.651211 -0.756182
vn -0.985104 -0.138022 -0.084541
vn -0.990997 -0.102633 0.063399
vn -0.993611 -0.071563 0.065143
vn -0.996163 -0.065470 0.000009
vn -0.994490 -0.087274 0.000030
vn -0.988968 -0.136271 0.000012
vn -0.985228 -0.137087 0.084613
vn 0.021470 -0.383927 0.921285
vn 0.002375 -0.147785 0.987310
vn 0.002375 -0.147785 0.987310
vn -0.993611 -0.071563 0.065143
vn 0.021470 -0.383927 0.921285
vn -0.990997 -0.102633 0.063399
vn 0.997539 0.039292 -0.000021
vn 0.997229 0.046327 -0.004037
vn 0.997231 0.046280 0.004074
vn -0.995459 -0.037468 -0.065456
vn -0.008996 0.087745 -0.994408
vn -0.008996 0.087745 -0.994408
vn -0.995493 -0.036542 0.065461
vn -0.997423 -0.042136 0.000006
vn -0.009533 0.100480 0.993197
vn -0.995493 -0.036542 0.065461
usemtl leaf_body Merged Material
f 59/94/94 60/95/95 61/96/96
f 62/97/97 61/96/96 60/95/95
f 61/96/96 62/97/97 63/98/98
f 63/98/98 64/99/99 61/96/96
f 65/100/100 61/96/96 66/101/101
f 64/99/99 66/101/101 61/96/96
f 67/102/102 59/94/94 61/96/96
f 61/96/96 65/100/100 67/102/102
f 68/103/103 67/102/102 69/104/104
f 65/100/100 69/104/104 67/102/102
f 69/104/104 65/100/100 70/105/105
f 66/101/101 70/105/105 65/100/100
f 71/106/106 69/104/104 70/105/105
f 70/105/105 72/107/107 71/106/106
f 73/108/108 68/103/103 69/104/104
f 69/104/104 71/106/106 73/108/108
f 74/109/109 73/108/108 75/110/110
f 71/106/106 75/110/110 73/108/108
f 75/110/110 71/106/106 72/107/107
f 72/107/107 76/111/111 75/110/110
f 77/112/112 75/113/113 78/114/114
f 76/115/115 78/114/114 75/113/113
f 79/116/116 74/117/117 75/113/113
f 75/113/113 77/112/112 79/116/116
f 80/118/118 79/116/116 81/119/119
f 77/112/112 81/119/119 79/116/116
f 81/119/119 77/112/112 82/120/120
f 78/114/114 82/120/120 77/112/112
f 62/121/121 81/119/119 82/120/120
f 82/120/120 63/122/122 62/121/121
f 60/123/123 80/118/118 81/119/119
f 81/119/119 62/121/121 60/123/123
f 83/124/124 84/125/125 85/126/126
f 85/126/126 86/127/127 83/124/124
f 86/127/127 85/126/126 87/128/128
f 88/129/129 87/128/128 85/126/126
f 89/130/130 86/131/131 87/132/132
f 87/132/132 90/133/133 89/130/130
f 91/134/134 83/135/135 89/130/130
f 86/131/131 89/130/130 83/136/136
f 74/137/137 79/138/138 80/139/139
f 80/139/139 92/140/140 74/137/137
f 92/141/141 80/139/139 59/142/142
f 60/95/95 59/142/142 80/139/139
f 68/143/143 92/144/144 59/145/145
f 59/145/145 67/102/102 68/143/143
f 73/146/146 74/147/147 68/143/143
f 92/144/144 68/143/143 74/147/147
f 93/148/148 94/149/149 95/150/150
f 95/150/150 96/151/151 93/148/148
f 96/151/151 95/150/150 91/134/134
f 91/134/134 89/152/152 96/151/151
f 97/153/153 96/151/151 90/154/154
f 89/152/152 90/154/154 96/151/151
f 98/155/155 93/148/148 97/153/153
f 96/151/151 97/153/153 93/148/148
f 99/156/156 100/157/157 101/158/158
f 101/158/158 102/159/159 99/156/156
f 102/160/160 98/155/155 99/161/161
f 97/153/153 99/161/161 98/155/155
f 99/161/161 97/153/153 90/154/154
f 90/154/154 87/162/162 99/161/161
f 87/163/163 88/164/164 99/156/156
f 100/157/157 99/156/156 88/164/164
f 103/165/165 104/166/166 105/167/167
f 105/167/167 106/168/168 103/165/165
f 106/168/168 105/167/167 100/157/157
f 101/158/158 100/157/157 105/167/167
f 85/169/169 106/168/168 88/164/164
f 100/157/157 88/164/164 106/168/168
f 84/170/170 103/165/165 106/168/168
f 106/168/168 85/169/169 84/170/170
f 107/171/171 95/150/150 94/149/149
f 94/149/149 108/172/172 107/171/171
f 108/173/173 104/174/174 107/175/175
f 103/176/176 107/175/175 104/174/174
f 107/175/175 103/176/176 84/125/125
f 84/125/125 83/124/124 107/175/175
f 83/135/135 91/134/134 107/171/171
f 95/150/150 107/171/171 91/134/134
f 70/105/105 66/101/101 109/177/177
f 110/178/178 109/177/177 66/101/101
f 109/177/177 110/178/178 93/148/148
f 94/149/149 93/148/148 110/178/178
f 111/179/179 109/177/177 98/155/155
f 93/148/148 98/155/155 109/177/177
f 72/107/107 70/105/105 109/177/177
f 109/177/177 111/179/179 72/107/107
f 112/180/180 78/114/114 76/115/115
f 76/115/115 113/181/181 112/180/180
f 113/182/182 76/111/111 111/179/179
f 72/107/107 111/179/179 76/111/111
f 102/160/160 113/182/182 111/179/179
f 111/179/179 98/155/155 102/160/160
f 101/158/158 112/180/180 102/159/159
f 113/181/181 102/159/159 112/180/180
f 114/183/183 63/122/122 115/184/184
f 82/120/120 115/184/184 63/122/122
f 115/184/184 82/120/120 78/114/114
f 78/114/114 112/180/180 115/184/184
f 105/167/167 115/184/184 101/158/158
f 112/180/180 101/158/158 115/184/184
f 104/166/166 114/183/183 105/167/167
f 115/184/184 105/167/167 114/183/183
f 110/178/178 66/101/101 64/99/99
f 64/99/99 116/185/185 110/178/178
f 116/185/185 64/99/99 114/186/186
f 63/98/98 114/186/186 64/99/99
f 108/173/173 116/185/185 104/174/174
f 114/186/186 104/174/174 116/185/185
f 94/149/149 110/178/178 108/172/172
f 116/185/185 108/172/172 110/178/178
