mtllib rolyPoly.mtl
g rolyPoly
v -0.299479 0.288194 0.299479
v -0.254630 0.184606 0.254630
v -0.163194 0.276042 0.381944
v -0.151042 0.139757 0.299479
v 0.000000 0.263889 0.409722
v 0.000000 0.117621 0.321615
v -0.175347 0.439236 0.409722
v 0.000000 0.439236 0.439236
v -0.321615 0.439236 0.321615
v 0.151042 0.139757 0.299479
v 0.163194 0.276042 0.381944
v 0.254630 0.184606 0.254630
v 0.299479 0.288194 0.299479
v 0.175347 0.439236 0.409722
v 0.321615 0.439236 0.321615
v 0.000000 0.614583 0.409722
v 0.163194 0.602430 0.381944
v 0.299479 0.590278 0.299479
v 0.151042 0.738715 0.299479
v 0.254630 0.693866 0.254630
v 0.000000 0.760851 0.321615
v -0.299479 0.590278 0.299479
v -0.163194 0.602430 0.381944
v -0.151042 0.738715 0.299479
v -0.254630 0.693866 0.254630
v -0.299479 0.738715 0.151042
v -0.163194 0.821180 0.163194
v 0.000000 0.848958 0.175347
v -0.175347 0.848958 0.000000
v 0.000000 0.878472 0.000000
v -0.321615 0.760851 0.000000
v 0.163194 0.821180 0.163194
v 0.299479 0.738715 0.151042
v 0.175347 0.848958 0.000000
v 0.321615 0.760851 0.000000
v 0.000000 0.848958 -0.175347
v 0.163194 0.821180 -0.163194
v 0.299479 0.738715 -0.151042
v 0.151042 0.738715 -0.299479
v 0.254630 0.693866 -0.254630
v 0.000000 0.760851 -0.321615
v -0.299479 0.738715 -0.151042
v -0.163194 0.821180 -0.163194
v -0.151042 0.738715 -0.299479
v -0.254630 0.693866 -0.254630
v -0.299479 0.590278 -0.299479
v -0.163194 0.602430 -0.381944
v 0.000000 0.614583 -0.409722
v -0.175347 0.439236 -0.409722
v 0.000000 0.439236 -0.439236
v -0.321615 0.439236 -0.321615
v 0.163194 0.602430 -0.381944
v 0.299479 0.590278 -0.299479
v 0.175347 0.439236 -0.409722
v 0.321615 0.439236 -0.321615
v 0.000000 0.263889 -0.409722
v 0.163194 0.276042 -0.381944
v 0.299479 0.288194 -0.299479
v 0.151042 0.139757 -0.299479
v 0.254630 0.184606 -0.254630
v 0.000000 0.117621 -0.321615
v -0.299479 0.288194 -0.299479
v -0.163194 0.276042 -0.381944
v -0.151042 0.139757 -0.299479
v -0.254630 0.184606 -0.254630
v -0.299479 0.139757 -0.151042
v -0.163194 0.057292 -0.163194
v 0.000000 0.029514 -0.175347
v -0.175347 0.029514 0.000000
v 0.000000 0.000000 0.000000
v -0.321615 0.117621 0.000000
v 0.163194 0.057292 -0.163194
v 0.299479 0.139757 -0.151042
v 0.175347 0.029514 0.000000
v 0.321615 0.117621 0.000000
v 0.000000 0.029514 0.175347
v 0.163194 0.057292 0.163194
v 0.299479 0.139757 0.151042
v -0.299479 0.139757 0.151042
v -0.163194 0.057292 0.163194
v 0.381944 0.276042 0.163194
v 0.409722 0.263889 0.000000
v 0.409722 0.439236 0.175347
v 0.439236 0.439236 0.000000
v 0.381944 0.276042 -0.163194
v 0.409722 0.439236 -0.175347
v 0.409722 0.614583 0.000000
v 0.381944 0.602430 -0.163194
v 0.381944 0.602430 0.163194
v -0.381944 0.276042 -0.163194
v -0.409722 0.263889 0.000000
v -0.409722 0.439236 -0.175347
v -0.439236 0.439236 0.000000
v -0.381944 0.276042 0.163194
v -0.409722 0.439236 0.175347
v -0.409722 0.614583 0.000000
v -0.381944 0.602430 0.163194
v -0.381944 0.602430 -0.163194
vt 0.155034 0.711282
vt 0.125013 0.735579
vt 0.122140 0.675848
vt 0.088178 0.711623
vt 0.086678 0.639035
vt 0.049975 0.676298
vt 0.160942 0.643505
vt 0.127324 0.602967
vt 0.192080 0.681586
vt 0.018881 0.636045
vt 0.054576 0.597276
vt 0.010911 0.619730
vt 0.000000 0.583086
vt 0.026326 0.554670
vt 0.094767 0.561874
vt 0.064457 0.520160
vt 0.171600 0.570688
vt 0.138376 0.532315
vt 0.108503 0.493033
vt 0.179235 0.502884
vt 0.146810 0.478059
vt 0.214062 0.540898
vt 0.229284 0.651571
vt 0.200451 0.612107
vt 0.241433 0.584980
vt 0.256452 0.625017
vt 0.316919 0.667511
vt 0.306402 0.630792
vt 0.362830 0.645361
vt 0.341795 0.601581
vt 0.410644 0.624788
vt 0.390588 0.577599
vt 0.381267 0.690980
vt 0.430863 0.674732
vt 0.336047 0.709830
vt 0.442674 0.564391
vt 0.461111 0.611264
vt 0.485219 0.562644
vt 0.509662 0.597636
vt 0.480695 0.660230
vt 0.530636 0.647538
vt 0.446092 0.727988
vt 0.492595 0.712188
vt 0.537135 0.697994
vt 0.504711 0.762641
vt 0.541287 0.738449
vt 0.454438 0.782034
vt 0.355256 0.750032
vt 0.398681 0.736421
vt 0.406919 0.781704
vt 0.370554 0.780886
vt 0.349180 0.809977
vt 0.393245 0.826377
vt 0.441809 0.835742
vt 0.371388 0.870614
vt 0.423747 0.887708
vt 0.320950 0.848056
vt 0.501728 0.801455
vt 0.488732 0.851734
vt 0.536337 0.823892
vt 0.535642 0.866155
vt 0.475017 0.902712
vt 0.524200 0.917686
vt 0.404717 0.937597
vt 0.455206 0.951038
vt 0.503032 0.965744
vt 0.438020 0.998021
vt 0.479524 1.000000
vt 0.386929 0.985827
vt 0.307877 0.897597
vt 0.355796 0.917675
vt 0.338948 0.963776
vt 0.304850 0.938766
vt 0.916437 0.767561
vt 0.893950 0.801442
vt 0.869427 0.752183
vt 0.853501 0.799457
vt 0.820643 0.738968
vt 0.803884 0.788128
vt 0.887694 0.704184
vt 0.836979 0.686940
vt 0.936693 0.720600
vt 0.757160 0.768024
vt 0.774162 0.721222
vt 0.722652 0.745446
vt 0.729684 0.707278
vt 0.786679 0.671100
vt 0.738239 0.660130
vt 0.852232 0.635626
vt 0.800554 0.621243
vt 0.746958 0.611672
vt 0.801303 0.571425
vt 0.762859 0.576590
vt 0.869723 0.586735
vt 0.820676 0.574150
vt 0.947899 0.670770
vt 0.900622 0.654706
vt 0.916269 0.607683
vt 0.950000 0.630301
vt 0.710167 0.554674
vt 0.744362 0.573085
vt 0.693353 0.601431
vt 0.746958 0.611672
vt 0.689117 0.653198
vt 0.738239 0.660130
vt 0.639685 0.596738
vt 0.636647 0.650176
vt 0.639820 0.544818
vt 0.690409 0.550008
vt 0.729684 0.707278
vt 0.683200 0.704760
vt 0.722652 0.745446
vt 0.682224 0.754703
vt 0.633642 0.705025
vt 0.631225 0.757071
vt 0.583081 0.648354
vt 0.584034 0.700153
vt 0.580616 0.750291
vt 0.537135 0.697994
vt 0.541287 0.738449
vt 0.530636 0.647538
vt 0.588570 0.548427
vt 0.587370 0.597799
vt 0.536834 0.597158
vt 0.548774 0.558355
vt 0.275741 0.876614
vt 0.236124 0.891698
vt 0.241575 0.837341
vt 0.201436 0.866210
vt 0.207827 0.796360
vt 0.165828 0.825741
vt 0.282656 0.808727
vt 0.250275 0.764148
vt 0.320950 0.848056
vt 0.139128 0.778728
vt 0.181071 0.752066
vt 0.222572 0.720167
vt 0.292034 0.732633
vt 0.266236 0.687091
vt 0.316919 0.667511
vt 0.336047 0.709830
vt 0.349180 0.809977
vt 0.317784 0.775470
vt 0.355256 0.750032
vt 0.370554 0.780886
vn -0.670392 -0.312691 0.670392
vn -0.576376 -0.576376 0.576376
vn -0.329322 -0.329322 0.884926
vn -0.312691 -0.670392 0.670392
vn 0.000000 -0.344577 0.936960
vn 0.000000 -0.705913 0.705913
vn -0.344577 0.000000 0.936960
vn 0.000000 0.000000 1.000000
vn -0.705913 0.000000 0.705913
vn 0.312690 -0.670393 0.670393
vn 0.329322 -0.329322 0.884926
vn 0.312690 -0.670393 0.670393
vn 0.576376 -0.576376 0.576376
vn 0.670393 -0.312690 0.670393
vn 0.344577 0.000000 0.936960
vn 0.705913 0.000000 0.705913
vn 0.000000 0.344577 0.936960
vn 0.329322 0.329322 0.884926
vn 0.670393 0.312690 0.670393
vn 0.312691 0.670392 0.670392
vn 0.576376 0.576376 0.576376
vn 0.000000 0.705913 0.705913
vn -0.670392 0.312691 0.670392
vn -0.329322 0.329322 0.884926
vn -0.312691 0.670392 0.670392
vn -0.576376 0.576376 0.576376
vn -0.670392 0.670392 0.312691
vn -0.576376 0.576376 0.576376
vn -0.329322 0.884926 0.329322
vn -0.312691 0.670392 0.670392
vn 0.000000 0.936960 0.344577
vn 0.000000 0.705913 0.705913
vn -0.344577 0.936960 0.000000
vn 0.000000 1.000000 0.000000
vn -0.705913 0.705913 0.000000
vn 0.312691 0.670392 0.670392
vn 0.329322 0.884926 0.329322
vn 0.576376 0.576376 0.576376
vn 0.670393 0.670393 0.312690
vn 0.344577 0.936960 0.000000
vn 0.705913 0.705913 0.000000
vn 0.000000 0.936960 -0.344577
vn 0.329322 0.884926 -0.329322
vn 0.670392 0.670392 -0.312691
vn 0.312690 0.670393 -0.670393
vn 0.576376 0.576376 -0.576376
vn 0.000000 0.705913 -0.705913
vn -0.670392 0.670392 -0.312691
vn -0.329322 0.884926 -0.329322
vn -0.312691 0.670392 -0.670392
vn -0.576376 0.576376 -0.576376
vn -0.670393 0.312690 -0.670393
vn -0.329322 0.329322 -0.884926
vn 0.000000 0.344577 -0.936960
vn -0.344577 -0.000000 -0.936960
vn 0.000000 0.000000 -1.000000
vn -0.705913 0.000000 -0.705913
vn 0.312690 0.670393 -0.670393
vn 0.329322 0.329322 -0.884926
vn 0.576376 0.576376 -0.576376
vn 0.670392 0.312691 -0.670392
vn 0.344577 0.000000 -0.936960
vn 0.705913 0.000000 -0.705913
vn -0.000000 -0.344577 -0.936960
vn 0.329322 -0.329322 -0.884926
vn 0.670392 -0.312691 -0.670392
vn 0.312691 -0.670392 -0.670392
vn 0.576376 -0.576376 -0.576376
vn -0.000000 -0.705913 -0.705913
vn -0.670392 -0.312691 -0.670392
vn -0.329322 -0.329322 -0.884926
vn -0.312691 -0.670392 -0.670392
vn -0.576376 -0.576376 -0.576376
vn -0.670393 -0.670393 -0.312690
vn -0.576376 -0.576376 -0.576376
vn -0.329322 -0.884926 -0.329322
vn -0.312691 -0.670392 -0.670392
vn 0.000000 -0.936960 -0.344577
vn -0.000000 -0.705913 -0.705913
vn -0.344577 -0.936960 0.000000
vn 0.000000 -1.000000 0.000000
vn -0.705913 -0.705913 0.000000
vn 0.312691 -0.670392 -0.670392
vn 0.329322 -0.884926 -0.329322
vn 0.576376 -0.576376 -0.576376
vn 0.670393 -0.670393 -0.312690
vn 0.344577 -0.936960 0.000000
vn 0.705913 -0.705913 0.000000
vn 0.000000 -0.936960 0.344577
vn 0.329322 -0.884926 0.329322
vn 0.670392 -0.670392 0.312691
vn 0.312690 -0.670393 0.670393
vn 0.576376 -0.576376 0.576376
vn 0.000000 -0.705913 0.705913
vn 0.312690 -0.670393 0.670393
vn -0.670392 -0.670392 0.312691
vn -0.329322 -0.884926 0.329322
vn -0.312691 -0.670392 0.670392
vn -0.576376 -0.576376 0.576376
vn 0.670393 -0.312690 0.670393
vn 0.576376 -0.576376 0.576376
vn 0.884926 -0.329322 0.329322
vn 0.670392 -0.670392 0.312691
vn 0.936960 -0.344577 0.000000
vn 0.705913 -0.705913 0.000000
vn 0.936960 0.000000 0.344577
vn 1.000000 0.000000 0.000000
vn 0.705913 0.000000 0.705913
vn 0.670393 -0.312690 0.670393
vn 0.670393 -0.670393 -0.312690
vn 0.884926 -0.329322 -0.329322
vn 0.576376 -0.576376 -0.576376
vn 0.670392 -0.312691 -0.670392
vn 0.936960 0.000000 -0.344577
vn 0.705913 0.000000 -0.705913
vn 0.936960 0.344577 0.000000
vn 0.884926 0.329322 -0.329322
vn 0.670392 0.312691 -0.670392
vn 0.670392 0.670392 -0.312691
vn 0.576376 0.576376 -0.576376
vn 0.705913 0.705913 0.000000
vn 0.670393 0.312690 0.670393
vn 0.884926 0.329322 0.329322
vn 0.670393 0.670393 0.312690
vn 0.576376 0.576376 0.576376
vn -0.670392 -0.312691 -0.670392
vn -0.576376 -0.576376 -0.576376
vn -0.884926 -0.329322 -0.329322
vn -0.670393 -0.670393 -0.312690
vn -0.936960 -0.344577 0.000000
vn -0.705913 -0.705913 0.000000
vn -0.936960 0.000000 -0.344577
vn -1.000000 0.000000 0.000000
vn -0.705913 0.000000 -0.705913
vn -0.670392 -0.670392 0.312691
vn -0.884926 -0.329322 0.329322
vn -0.936960 0.000000 0.344577
vn -0.936960 0.344577 0.000000
vn -0.884926 0.329322 0.329322
vn -0.670392 0.670392 0.312691
vn -0.705913 0.705913 0.000000
vn -0.670393 0.312690 -0.670393
vn -0.884926 0.329322 -0.329322
vn -0.670392 0.670392 -0.312691
vn -0.576376 0.576376 -0.576376
usemtl rolyPoly Merged Material
f 1/1/1 2/2/2 3/3/3
f 4/4/4 3/3/3 2/2/2
f 3/3/3 4/4/4 5/5/5
f 6/6/6 5/5/5 4/4/4
f 7/7/7 3/3/3 8/8/8
f 5/5/5 8/8/8 3/3/3
f 9/9/9 1/1/1 7/7/7
f 3/3/3 7/7/7 1/1/1
f 5/5/5 6/6/6 10/10/10
f 10/10/10 11/11/11 5/5/5
f 11/11/11 10/12/12 12/13/13
f 12/13/13 13/14/14 11/11/11
f 14/15/15 11/11/11 13/14/14
f 13/14/14 15/16/16 14/15/15
f 8/8/8 5/5/5 11/11/11
f 11/11/11 14/15/15 8/8/8
f 16/17/17 8/8/8 17/18/18
f 14/15/15 17/18/18 8/8/8
f 17/18/18 14/15/15 18/19/19
f 15/16/16 18/19/19 14/15/15
f 19/20/20 17/18/18 20/21/21
f 18/19/19 20/21/21 17/18/18
f 21/22/22 16/17/17 19/20/20
f 17/18/18 19/20/20 16/17/17
f 22/23/23 9/9/9 7/7/7
f 7/7/7 23/24/24 22/23/23
f 23/24/24 7/7/7 8/8/8
f 8/8/8 16/17/17 23/24/24
f 24/25/25 23/24/24 16/17/17
f 16/17/17 21/22/22 24/25/25
f 25/26/26 22/23/23 23/24/24
f 23/24/24 24/25/25 25/26/26
f 26/27/27 25/28/28 27/29/29
f 24/30/30 27/29/29 25/28/28
f 27/29/29 24/30/30 28/31/31
f 21/32/32 28/31/31 24/30/30
f 29/33/33 27/29/29 30/34/34
f 28/31/31 30/34/34 27/29/29
f 31/35/35 26/27/27 29/33/33
f 27/29/29 29/33/33 26/27/27
f 28/31/31 21/32/32 19/36/36
f 19/36/36 32/37/37 28/31/31
f 32/37/37 19/36/36 20/38/38
f 20/38/38 33/39/39 32/37/37
f 34/40/40 32/37/37 33/39/39
f 33/39/39 35/41/41 34/40/40
f 30/34/34 28/31/31 32/37/37
f 32/37/37 34/40/40 30/34/34
f 36/42/42 30/34/34 37/43/43
f 34/40/40 37/43/43 30/34/34
f 37/43/43 34/40/40 38/44/44
f 35/41/41 38/44/44 34/40/40
f 39/45/45 37/43/43 40/46/46
f 38/44/44 40/46/46 37/43/43
f 41/47/47 36/42/42 39/45/45
f 37/43/43 39/45/45 36/42/42
f 42/48/48 31/35/35 29/33/33
f 29/33/33 43/49/49 42/48/48
f 43/49/49 29/33/33 30/34/34
f 30/34/34 36/42/42 43/49/49
f 44/50/50 43/49/49 36/42/42
f 36/42/42 41/47/47 44/50/50
f 45/51/51 42/48/48 43/49/49
f 43/49/49 44/50/50 45/51/51
f 46/52/52 45/51/51 47/53/53
f 44/50/50 47/53/53 45/51/51
f 47/53/53 44/50/50 48/54/54
f 41/47/47 48/54/54 44/50/50
f 49/55/55 47/53/53 50/56/56
f 48/54/54 50/56/56 47/53/53
f 51/57/57 46/52/52 49/55/55
f 47/53/53 49/55/55 46/52/52
f 48/54/54 41/47/47 39/58/58
f 39/58/58 52/59/59 48/54/54
f 52/59/59 39/58/58 40/60/60
f 40/60/60 53/61/61 52/59/59
f 54/62/62 52/59/59 53/61/61
f 53/61/61 55/63/63 54/62/62
f 50/56/56 48/54/54 52/59/59
f 52/59/59 54/62/62 50/56/56
f 56/64/64 50/56/56 57/65/65
f 54/62/62 57/65/65 50/56/56
f 57/65/65 54/62/62 58/66/66
f 55/63/63 58/66/66 54/62/62
f 59/67/67 57/65/65 60/68/68
f 58/66/66 60/68/68 57/65/65
f 61/69/69 56/64/64 59/67/67
f 57/65/65 59/67/67 56/64/64
f 62/70/70 51/57/57 49/55/55
f 49/55/55 63/71/71 62/70/70
f 63/71/71 49/55/55 50/56/56
f 50/56/56 56/64/64 63/71/71
f 64/72/72 63/71/71 56/64/64
f 56/64/64 61/69/69 64/72/72
f 65/73/73 62/70/70 63/71/71
f 63/71/71 64/72/72 65/73/73
f 66/74/74 65/75/75 67/76/76
f 64/77/77 67/76/76 65/75/75
f 67/76/76 64/77/77 68/78/78
f 61/79/79 68/78/78 64/77/77
f 69/80/80 67/76/76 70/81/81
f 68/78/78 70/81/81 67/76/76
f 71/82/82 66/74/74 69/80/80
f 67/76/76 69/80/80 66/74/74
f 68/78/78 61/79/79 59/83/83
f 59/83/83 72/84/84 68/78/78
f 72/84/84 59/83/83 60/85/85
f 60/85/85 73/86/86 72/84/84
f 74/87/87 72/84/84 73/86/86
f 73/86/86 75/88/88 74/87/87
f 70/81/81 68/78/78 72/84/84
f 72/84/84 74/87/87 70/81/81
f 76/89/89 70/81/81 77/90/90
f 74/87/87 77/90/90 70/81/81
f 77/90/90 74/87/87 78/91/91
f 75/88/88 78/91/91 74/87/87
f 10/92/92 77/90/90 12/93/93
f 78/91/91 12/93/93 77/90/90
f 6/94/94 76/89/89 10/95/95
f 77/90/90 10/95/95 76/89/89
f 79/96/96 71/82/82 69/80/80
f 69/80/80 80/97/97 79/96/96
f 80/97/97 69/80/80 70/81/81
f 70/81/81 76/89/89 80/97/97
f 4/98/98 80/97/97 76/89/89
f 76/89/89 6/94/94 4/98/98
f 2/99/99 79/96/96 80/97/97
f 80/97/97 4/98/98 2/99/99
f 13/100/100 12/101/101 81/102/102
f 78/103/103 81/102/102 12/101/101
f 81/102/102 78/103/103 82/104/104
f 75/105/105 82/104/104 78/103/103
f 83/106/106 81/102/102 84/107/107
f 82/104/104 84/107/107 81/102/102
f 15/108/108 13/109/109 83/106/106
f 81/102/102 83/106/106 13/109/109
f 82/104/104 75/105/105 73/110/110
f 73/110/110 85/111/111 82/104/104
f 85/111/111 73/110/110 60/112/112
f 60/112/112 58/113/113 85/111/111
f 86/114/114 85/111/111 58/113/113
f 58/113/113 55/115/115 86/114/114
f 84/107/107 82/104/104 85/111/111
f 85/111/111 86/114/114 84/107/107
f 87/116/116 84/107/107 88/117/117
f 86/114/114 88/117/117 84/107/107
f 88/117/117 86/114/114 53/118/118
f 55/115/115 53/118/118 86/114/114
f 38/119/119 88/117/117 40/120/120
f 53/118/118 40/120/120 88/117/117
f 35/121/121 87/116/116 38/119/119
f 88/117/117 38/119/119 87/116/116
f 18/122/122 15/108/108 83/106/106
f 83/106/106 89/123/123 18/122/122
f 89/123/123 83/106/106 84/107/107
f 84/107/107 87/116/116 89/123/123
f 33/124/124 89/123/123 87/116/116
f 87/116/116 35/121/121 33/124/124
f 20/125/125 18/122/122 89/123/123
f 89/123/123 33/124/124 20/125/125
f 62/126/126 65/127/127 90/128/128
f 66/129/129 90/128/128 65/127/127
f 90/128/128 66/129/129 91/130/130
f 71/131/131 91/130/130 66/129/129
f 92/132/132 90/128/128 93/133/133
f 91/130/130 93/133/133 90/128/128
f 51/134/134 62/126/126 92/132/132
f 90/128/128 92/132/132 62/126/126
f 91/130/130 71/131/131 79/135/135
f 79/135/135 94/136/136 91/130/130
f 94/136/136 79/135/135 2/2/2
f 2/2/2 1/1/1 94/136/136
f 95/137/137 94/136/136 1/1/1
f 1/1/1 9/9/9 95/137/137
f 93/133/133 91/130/130 94/136/136
f 94/136/136 95/137/137 93/133/133
f 96/138/138 93/133/133 97/139/139
f 95/137/137 97/139/139 93/133/133
f 97/139/139 95/137/137 22/23/23
f 9/9/9 22/23/23 95/137/137
f 26/140/140 97/139/139 25/28/28
f 22/23/23 25/26/26 97/139/139
f 31/141/141 96/138/138 26/140/140
f 97/139/139 26/140/140 96/138/138
f 46/142/142 51/134/134 92/132/132
f 92/132/132 98/143/143 46/142/142
f 98/143/143 92/132/132 93/133/133
f 93/133/133 96/138/138 98/143/143
f 42/144/144 98/143/143 96/138/138
f 96/138/138 31/141/141 42/144/144
f 45/145/145 46/142/142 98/143/143
f 98/143/143 42/144/144 45/145/145
