# This file uses centimeters as units for non-parametric coordinates.

mtllib stickDraw.mtl
g default
v 0.368562 0.089719 -4.680880
v 0.378382 0.089719 -4.578740
v 0.368562 3.234158 -4.680880
v 0.378382 3.234158 -4.578740
v 0.472331 3.234158 -4.690858
v 0.482152 3.234158 -4.588717
v 0.472331 0.089719 -4.690858
v 0.482152 0.089719 -4.588717
v 0.361941 2.741642 -4.559119
v 0.348683 2.741642 -4.697009
v 0.488772 2.741642 -4.710478
v 0.502030 2.741642 -4.572589
v 0.361941 0.584161 -4.559119
v 0.348683 0.584161 -4.697009
v 0.488772 0.584161 -4.710478
v 0.502030 0.584161 -4.572589
v 0.434195 0.584161 -4.542872
v 0.416518 0.584161 -4.726725
v 0.331964 2.741642 -4.625819
v 0.361941 3.173705 -4.559119
v 0.348683 3.173705 -4.697009
v 0.416518 2.741642 -4.726725
v 0.488772 3.173705 -4.710478
v 0.502030 3.173705 -4.572589
v 0.518749 2.741642 -4.643778
v 0.434195 2.741642 -4.542872
v 0.361941 1.663086 -4.559119
v 0.348683 1.663086 -4.697009
v 0.488772 1.663086 -4.710478
v 0.502030 1.663086 -4.572589
v 0.355312 0.068273 -4.628064
v 0.361941 0.150992 -4.559119
v 0.331964 0.584161 -4.625819
v 0.348683 0.150992 -4.697009
v 0.355312 3.255315 -4.628064
v 0.431986 3.255315 -4.565854
v 0.495401 3.255315 -4.641534
v 0.418728 3.255315 -4.703744
v 0.518749 0.584161 -4.643778
v 0.502030 0.150992 -4.572589
v 0.495401 0.068274 -4.641534
v 0.488772 0.150992 -4.710478
v 0.431986 0.068274 -4.565854
v 0.418728 0.068273 -4.703744
v 0.331964 0.150991 -4.625819
v 0.425357 3.282519 -4.634799
v 0.518749 0.150991 -4.643778
v 0.425357 0.040701 -4.634799
v 0.434195 0.150991 -4.542872
v 0.416518 0.150991 -4.726725
v 0.331964 3.173705 -4.625819
v 0.416518 3.173705 -4.726725
v 0.518749 3.173705 -4.643778
v 0.434195 3.173705 -4.542872
v 0.331964 1.663086 -4.625819
v 0.416518 1.663086 -4.726725
v 0.518749 1.663086 -4.643778
v 0.434195 1.663086 -4.542872
v 0.415237 2.512914 -4.490634
v 0.416952 2.466787 -4.472795
v 0.455076 2.674638 -4.076286
v 0.456791 2.628510 -4.058447
v 0.502599 2.674638 -4.080855
v 0.504314 2.628510 -4.063016
v 0.462760 2.512914 -4.495203
v 0.464475 2.466787 -4.477364
v 0.442535 2.595107 -4.119425
v 0.440220 2.657379 -4.143508
v 0.504375 2.657379 -4.149676
v 0.506690 2.595107 -4.125593
v 0.415201 2.484144 -4.403720
v 0.412885 2.546416 -4.427802
v 0.477040 2.546416 -4.433971
v 0.479356 2.484144 -4.409888
v 0.447664 2.473766 -4.402790
v 0.444577 2.556795 -4.434900
v 0.430685 2.626243 -4.130438
v 0.444078 2.601370 -4.103378
v 0.441763 2.663642 -4.127460
v 0.471911 2.667758 -4.150605
v 0.505918 2.663642 -4.133629
v 0.508233 2.601370 -4.109546
v 0.516225 2.626243 -4.138663
v 0.474999 2.584728 -4.118495
v 0.428870 2.539635 -4.261548
v 0.426555 2.601907 -4.285631
v 0.490710 2.601907 -4.291799
v 0.493025 2.539635 -4.267716
v 0.407507 2.488747 -4.483741
v 0.413450 2.477037 -4.421930
v 0.403350 2.515280 -4.414733
v 0.411134 2.539309 -4.446012
v 0.447886 2.652662 -4.063779
v 0.481121 2.621526 -4.054821
v 0.512041 2.652662 -4.069947
v 0.478805 2.683798 -4.078904
v 0.488890 2.515280 -4.422957
v 0.477605 2.477037 -4.428098
v 0.471662 2.488747 -4.489909
v 0.475289 2.539309 -4.452181
v 0.440742 2.457611 -4.474783
v 0.438427 2.519883 -4.498866
v 0.401599 2.508173 -4.432943
v 0.480308 2.654061 -4.063278
v 0.487140 2.508173 -4.441168
v 0.439235 2.487329 -4.490458
v 0.445913 2.466658 -4.421000
v 0.442826 2.549687 -4.453111
v 0.432228 2.632506 -4.114391
v 0.473454 2.674021 -4.134559
v 0.517768 2.632506 -4.122616
v 0.476542 2.590992 -4.102448
v 0.417020 2.570771 -4.272561
v 0.458246 2.612286 -4.292729
v 0.502560 2.570771 -4.280786
v 0.461334 2.529256 -4.260618
v 0.385610 2.191598 -4.684193
v 0.391419 2.154238 -4.623775
v 0.431061 2.963126 -4.211480
v 0.436870 2.925766 -4.151062
v 0.500414 2.963126 -4.218148
v 0.506224 2.925766 -4.157730
v 0.454964 2.191598 -4.690861
v 0.460773 2.154238 -4.630444
v 0.418631 2.798383 -4.213364
v 0.410789 2.848819 -4.294927
v 0.504416 2.848819 -4.303929
v 0.512258 2.798383 -4.222366
v 0.387446 2.269018 -4.537704
v 0.379604 2.319454 -4.619268
v 0.473231 2.319454 -4.628270
v 0.481073 2.269018 -4.546706
v 0.435567 2.260612 -4.528611
v 0.425110 2.327860 -4.637363
v 0.399105 2.823601 -4.252645
v 0.420391 2.828263 -4.195056
v 0.412549 2.878699 -4.276620
v 0.456295 2.857225 -4.313022
v 0.506176 2.878699 -4.285622
v 0.514018 2.828263 -4.204058
v 0.523941 2.823601 -4.264648
v 0.466752 2.789977 -4.204271
v 0.403041 2.533746 -4.375506
v 0.395199 2.584181 -4.457070
v 0.488826 2.584181 -4.466072
v 0.496668 2.533746 -4.384508
v 0.376068 2.167656 -4.656041
v 0.385448 2.235110 -4.558480
v 0.367920 2.294236 -4.576986
v 0.377606 2.285546 -4.640043
v 0.422135 2.949637 -4.176923
v 0.472869 2.924419 -4.140643
v 0.515762 2.949637 -4.185925
v 0.465027 2.974855 -4.222206
v 0.492756 2.294236 -4.588989
v 0.479075 2.235110 -4.567482
v 0.469695 2.167656 -4.665043
v 0.471233 2.285546 -4.649045
v 0.426803 2.142438 -4.619760
v 0.418960 2.192874 -4.701324
v 0.365923 2.260328 -4.597761
v 0.469341 2.956312 -4.177335
v 0.490759 2.260328 -4.609764
v 0.422483 2.160891 -4.664687
v 0.433569 2.226704 -4.549387
v 0.423113 2.293951 -4.658138
v 0.400866 2.853481 -4.234338
v 0.458055 2.887105 -4.294715
v 0.525701 2.853481 -4.246341
v 0.468512 2.819857 -4.185963
v 0.383516 2.558964 -4.414788
v 0.440705 2.592587 -4.475165
v 0.508351 2.558964 -4.426791
v 0.451162 2.525340 -4.366413
vt 0.375000 0.000000
vt 0.375000 1.000000
vt 0.625000 0.000000
vt 0.625000 1.000000
vt 0.375000 0.250000
vt 0.625000 0.250000
vt 0.375000 0.500000
vt 0.125000 0.250000
vt 0.625000 0.500000
vt 0.875000 0.250000
vt 0.375000 0.750000
vt 0.125000 0.000000
vt 0.625000 0.750000
vt 0.875000 0.000000
vt 0.625000 0.208289
vt 0.375000 0.208289
vt 0.125000 0.233217
vt 0.375000 0.516783
vt 0.625000 0.516783
vt 0.875000 0.233217
vt 0.625000 0.041910
vt 0.375000 0.041910
vt 0.375000 0.732989
vt 0.125000 0.017011
vt 0.625000 0.732989
vt 0.875000 0.017011
vt 0.500000 0.008505
vt 0.500000 0.375000
vt 0.500000 0.741495
vt 0.500000 0.875000
vt 0.750000 0.008505
vt 0.250000 0.008505
vt 0.500000 0.241608
vt 0.250000 0.241608
vt 0.500000 0.508392
vt 0.750000 0.241608
vt 0.500000 0.125114
vt 0.250000 0.125114
vt 0.500000 0.624886
vt 0.750000 0.125114
vt 0.500000 0.000000
vt 0.500000 1.000000
vt 0.625000 0.008505
vt 0.500000 0.041910
vt 0.375000 0.008505
vt 0.500000 0.279152
vt 0.625000 0.375000
vt 0.750000 0.250000
vt 0.500000 0.470848
vt 0.375000 0.375000
vt 0.250000 0.250000
vt 0.500000 0.708090
vt 0.625000 0.741495
vt 0.875000 0.008505
vt 0.500000 0.779124
vt 0.375000 0.741495
vt 0.125000 0.008505
vt 0.625000 0.875000
vt 0.750000 0.000000
vt 0.375000 0.875000
vt 0.250000 0.000000
vt 0.750000 0.041910
vt 0.250000 0.041910
vt 0.500000 0.208289
vt 0.625000 0.241608
vt 0.375000 0.241608
vt 0.250000 0.208289
vt 0.125000 0.241608
vt 0.375000 0.508392
vt 0.625000 0.508392
vt 0.875000 0.241608
vt 0.500000 0.541711
vt 0.750000 0.208289
vt 0.625000 0.125114
vt 0.375000 0.125114
vt 0.125000 0.125114
vt 0.375000 0.624886
vt 0.625000 0.624886
vt 0.875000 0.125114
vt 0.375000 0.000000
vt 0.500000 0.000000
vt 0.500000 0.008505
vt 0.375000 0.008505
vt 0.625000 0.000000
vt 0.625000 0.008505
vt 0.625000 0.041910
vt 0.500000 0.041910
vt 0.375000 0.041910
vt 0.375000 0.250000
vt 0.500000 0.279152
vt 0.500000 0.375000
vt 0.375000 0.375000
vt 0.625000 0.250000
vt 0.625000 0.375000
vt 0.625000 0.500000
vt 0.500000 0.470848
vt 0.375000 0.500000
vt 0.375000 0.732989
vt 0.500000 0.708090
vt 0.500000 0.741495
vt 0.375000 0.741495
vt 0.625000 0.732989
vt 0.625000 0.741495
vt 0.625000 0.750000
vt 0.500000 0.779124
vt 0.375000 0.750000
vt 0.500000 0.875000
vt 0.375000 0.875000
vt 0.625000 0.875000
vt 0.625000 1.000000
vt 0.500000 1.000000
vt 0.375000 1.000000
vt 0.750000 0.000000
vt 0.750000 0.008505
vt 0.875000 0.000000
vt 0.875000 0.008505
vt 0.875000 0.017011
vt 0.750000 0.041910
vt 0.125000 0.000000
vt 0.250000 0.000000
vt 0.250000 0.008505
vt 0.125000 0.008505
vt 0.250000 0.041910
vt 0.125000 0.017011
vt 0.375000 0.208289
vt 0.500000 0.208289
vt 0.500000 0.241608
vt 0.375000 0.241608
vt 0.625000 0.208289
vt 0.625000 0.241608
vt 0.125000 0.233217
vt 0.250000 0.208289
vt 0.250000 0.241608
vt 0.125000 0.241608
vt 0.250000 0.250000
vt 0.125000 0.250000
vt 0.500000 0.508392
vt 0.375000 0.508392
vt 0.625000 0.508392
vt 0.625000 0.516783
vt 0.500000 0.541711
vt 0.375000 0.516783
vt 0.750000 0.208289
vt 0.750000 0.241608
vt 0.875000 0.233217
vt 0.875000 0.241608
vt 0.875000 0.250000
vt 0.750000 0.250000
vt 0.500000 0.125114
vt 0.375000 0.125114
vt 0.625000 0.125114
vt 0.250000 0.125114
vt 0.125000 0.125114
vt 0.500000 0.624886
vt 0.375000 0.624886
vt 0.625000 0.624886
vt 0.750000 0.125114
vt 0.875000 0.125114
vt 0.375000 0.000000
vt 0.500000 0.000000
vt 0.500000 0.008505
vt 0.375000 0.008505
vt 0.625000 0.000000
vt 0.625000 0.008505
vt 0.625000 0.041910
vt 0.500000 0.041910
vt 0.375000 0.041910
vt 0.375000 0.250000
vt 0.500000 0.279152
vt 0.500000 0.375000
vt 0.375000 0.375000
vt 0.625000 0.250000
vt 0.625000 0.375000
vt 0.625000 0.500000
vt 0.500000 0.470848
vt 0.375000 0.500000
vt 0.375000 0.732989
vt 0.500000 0.708090
vt 0.500000 0.741495
vt 0.375000 0.741495
vt 0.625000 0.732989
vt 0.625000 0.741495
vt 0.625000 0.750000
vt 0.500000 0.779124
vt 0.375000 0.750000
vt 0.500000 0.875000
vt 0.375000 0.875000
vt 0.625000 0.875000
vt 0.625000 1.000000
vt 0.500000 1.000000
vt 0.375000 1.000000
vt 0.750000 0.000000
vt 0.750000 0.008505
vt 0.875000 0.000000
vt 0.875000 0.008505
vt 0.875000 0.017011
vt 0.750000 0.041910
vt 0.125000 0.000000
vt 0.250000 0.000000
vt 0.250000 0.008505
vt 0.125000 0.008505
vt 0.250000 0.041910
vt 0.125000 0.017011
vt 0.375000 0.208289
vt 0.500000 0.208289
vt 0.500000 0.241608
vt 0.375000 0.241608
vt 0.625000 0.208289
vt 0.625000 0.241608
vt 0.125000 0.233217
vt 0.250000 0.208289
vt 0.250000 0.241608
vt 0.125000 0.241608
vt 0.250000 0.250000
vt 0.125000 0.250000
vt 0.500000 0.508392
vt 0.375000 0.508392
vt 0.625000 0.508392
vt 0.625000 0.516783
vt 0.500000 0.541711
vt 0.375000 0.516783
vt 0.750000 0.208289
vt 0.750000 0.241608
vt 0.875000 0.233217
vt 0.875000 0.241608
vt 0.875000 0.250000
vt 0.750000 0.250000
vt 0.500000 0.125114
vt 0.375000 0.125114
vt 0.625000 0.125114
vt 0.250000 0.125114
vt 0.125000 0.125114
vt 0.500000 0.624886
vt 0.375000 0.624886
vt 0.625000 0.624886
vt 0.750000 0.125114
vt 0.875000 0.125114
vn -0.660565 -0.506656 -0.554034
vn -0.746610 -0.661377 0.071786
vn -0.994610 -0.040061 0.095631
vn -0.765975 -0.039770 -0.641639
vn -0.542899 -0.506656 0.669746
vn -0.629688 -0.039770 0.775830
vn -0.630063 0.000000 0.776544
vn -0.995410 0.000000 0.095707
vn -0.766480 0.000000 -0.642268
vn -0.658016 0.512260 -0.551910
vn -0.743245 0.665192 0.071462
vn 0.000000 1.000000 -0.000000
vn -0.071875 0.660316 -0.747541
vn -0.540802 0.512260 0.667175
vn 0.071875 0.660316 0.747541
vn 0.658016 0.512260 0.551910
vn 0.743245 0.665192 -0.071462
vn 0.540802 0.512260 -0.667175
vn 0.630063 0.000000 -0.776544
vn 0.995410 0.000000 -0.095707
vn 0.994610 -0.040061 -0.095631
vn 0.629687 -0.039770 -0.775830
vn 0.766480 0.000000 0.642268
vn 0.765975 -0.039770 0.641639
vn 0.660564 -0.506657 0.554034
vn 0.746612 -0.661376 -0.071785
vn 0.542900 -0.506657 -0.669745
vn 0.000003 -1.000000 0.000000
vn -0.072196 -0.656467 -0.750892
vn 0.072199 -0.656467 0.750892
vn 0.095633 -0.039520 0.994632
vn 0.095707 0.000000 0.995410
vn -0.095633 -0.039520 -0.994632
vn -0.095707 0.000000 -0.995410
vn -0.766480 0.000000 -0.642268
vn -0.995410 0.000000 0.095707
vn -0.994605 0.040188 0.095630
vn -0.765972 0.039872 -0.641636
vn -0.630063 0.000000 0.776544
vn -0.629685 0.039872 0.775827
vn 0.630063 0.000000 -0.776544
vn -0.095707 0.000000 -0.995410
vn -0.095632 0.039647 -0.994627
vn 0.629685 0.039872 -0.775827
vn 0.994605 0.040188 -0.095630
vn 0.765972 0.039872 0.641636
vn 0.766480 0.000000 0.642268
vn 0.995410 0.000000 -0.095707
vn 0.095707 0.000000 0.995410
vn 0.095632 0.039647 0.994627
vn -0.995410 0.000000 0.095707
vn -0.766480 0.000000 -0.642268
vn -0.630063 0.000000 0.776544
vn -0.095707 0.000000 -0.995410
vn 0.630063 0.000000 -0.776544
vn 0.995410 0.000000 -0.095707
vn 0.766480 0.000000 0.642268
vn 0.095707 0.000000 0.995410
vn -0.695382 0.398544 -0.598002
vn -0.895596 -0.189041 -0.402706
vn -0.997876 -0.052184 -0.038991
vn -0.744505 0.585267 -0.321208
vn -0.653017 -0.740812 -0.157374
vn -0.696874 -0.695718 0.174193
vn -0.692314 -0.647175 0.319164
vn -0.995410 -0.000000 0.095707
vn -0.740442 0.647176 -0.181406
vn -0.616835 0.740585 0.266549
vn -0.811679 0.184186 0.554304
vn 0.089211 0.362145 0.927843
vn 0.016516 0.984998 0.171775
vn -0.574162 -0.407058 0.710381
vn 0.075829 -0.610130 0.788665
vn 0.698997 -0.407058 0.587968
vn 0.902424 0.184187 0.389494
vn 0.656322 0.740585 0.144137
vn 0.692313 0.647176 -0.319164
vn 0.995410 -0.000000 -0.095707
vn 0.972166 -0.052184 -0.228408
vn 0.669665 0.585267 -0.457178
vn 0.740443 -0.647176 0.181406
vn 0.717297 -0.695718 0.038222
vn 0.611068 -0.740812 -0.278914
vn 0.802459 -0.189041 -0.565970
vn 0.568702 0.398544 -0.719542
vn -0.089210 -0.362146 -0.927843
vn -0.076743 0.597528 -0.798167
vn -0.018004 -0.982147 -0.187252
vn 0.020976 -0.975689 0.218153
vn 0.034660 -0.932122 0.360483
vn -0.047571 0.867727 -0.494760
vn -0.034660 0.932122 -0.360483
vn -0.740443 0.647176 -0.181406
vn -0.995410 -0.000000 0.095707
vn -0.971822 0.052714 0.229745
vn -0.716935 0.696179 -0.036578
vn -0.692314 -0.647176 0.319164
vn -0.669316 -0.584478 0.458695
vn 0.692313 0.647176 -0.319164
vn -0.034660 0.932122 -0.360483
vn -0.020830 0.976029 -0.216640
vn 0.696832 0.696179 -0.172510
vn 0.997793 0.052715 0.040369
vn 0.744453 -0.584478 0.322762
vn 0.740443 -0.647176 0.181406
vn 0.995410 -0.000000 -0.095707
vn 0.034660 -0.932122 0.360483
vn 0.047700 -0.866953 0.496102
vn -0.995409 -0.000000 0.095707
vn -0.740442 0.647176 -0.181406
vn -0.692314 -0.647175 0.319164
vn -0.034660 0.932122 -0.360483
vn 0.692314 0.647176 -0.319164
vn 0.995410 -0.000000 -0.095707
vn 0.740443 -0.647176 0.181406
vn 0.034660 -0.932122 0.360483
vn -0.736940 0.041006 -0.674713
vn -0.926749 -0.352817 -0.129062
vn -0.995201 -0.089008 0.040649
vn -0.769240 0.270500 -0.578878
vn -0.630411 -0.644113 0.433245
vn -0.655914 -0.458326 0.599762
vn -0.654828 -0.366423 0.661010
vn -0.995410 -0.000000 0.095708
vn -0.768778 0.366423 -0.524132
vn -0.704814 0.636863 -0.312478
vn -0.891242 0.342392 0.297415
vn 0.050169 0.851605 0.521777
vn -0.053994 0.825666 -0.561570
vn -0.597852 -0.051039 0.799980
vn 0.094873 -0.131747 0.986733
vn 0.739324 -0.051039 0.671412
vn 0.931583 0.342392 0.122152
vn 0.632364 0.636863 -0.441046
vn 0.654828 0.366423 -0.661010
vn 0.995410 -0.000000 -0.095707
vn 0.984714 -0.089008 -0.149718
vn 0.644850 0.270500 -0.714841
vn 0.768778 -0.366423 0.524132
vn 0.758174 -0.458325 0.463799
vn 0.701411 -0.644113 0.305192
vn 0.885180 -0.352817 -0.303277
vn 0.594883 0.041006 -0.802766
vn -0.050168 -0.851606 -0.521776
vn -0.095035 0.118299 -0.988420
vn 0.052919 -0.833236 0.550380
vn 0.075680 -0.612159 0.787105
vn 0.081505 -0.524183 0.847697
vn -0.086398 0.430207 -0.898586
vn -0.081505 0.524183 -0.847696
vn -0.768778 0.366423 -0.524132
vn -0.995410 0.000000 0.095707
vn -0.984555 0.089880 0.150242
vn -0.758013 0.459272 -0.463127
vn -0.654828 -0.366423 0.661010
vn -0.644702 -0.269463 0.715366
vn 0.654828 0.366423 -0.661010
vn -0.081505 0.524183 -0.847697
vn -0.075617 0.612997 -0.786458
vn 0.655884 0.459272 -0.599071
vn 0.995145 0.089880 -0.040104
vn 0.769194 -0.269463 0.579422
vn 0.768778 -0.366423 0.524133
vn 0.995410 0.000000 -0.095707
vn 0.081504 -0.524183 0.847697
vn 0.086442 -0.429250 0.899040
vn -0.995410 0.000000 0.095707
vn -0.768778 0.366423 -0.524132
vn -0.654828 -0.366423 0.661010
vn -0.081505 0.524183 -0.847696
vn 0.654828 0.366423 -0.661010
vn 0.995410 0.000000 -0.095707
vn 0.768778 -0.366423 0.524132
vn 0.081505 -0.524183 0.847697
s 1
g group2_pasted__pCube1
usemtl initialShadingGroup
f 1/1/1 31/41/2 45/27/3 34/45/4
f 31/41/2 2/3/5 32/43/6 45/27/3
f 45/27/3 32/43/6 13/21/7 33/44/8
f 34/45/4 45/27/3 33/44/8 14/22/9
f 3/5/10 35/46/11 46/28/12 38/50/13
f 35/46/11 4/6/14 36/47/15 46/28/12
f 46/28/12 36/47/15 6/9/16 37/49/17
f 38/50/13 46/28/12 37/49/17 5/7/18
f 15/23/19 39/52/20 47/29/21 42/56/22
f 39/52/20 16/25/23 40/53/24 47/29/21
f 47/29/21 40/53/24 8/13/25 41/55/26
f 42/56/22 47/29/21 41/55/26 7/11/27
f 7/11/27 41/55/26 48/30/28 44/60/29
f 41/55/26 8/13/25 43/58/30 48/30/28
f 48/30/28 43/58/30 2/4/5 31/42/2
f 44/60/29 48/30/28 31/42/2 1/2/1
f 2/3/5 43/59/30 49/31/31 32/43/6
f 43/59/30 8/14/25 40/54/24 49/31/31
f 49/31/31 40/54/24 16/26/23 17/62/32
f 32/43/6 49/31/31 17/62/32 13/21/7
f 7/12/27 44/61/29 50/32/33 42/57/22
f 44/61/29 1/1/1 34/45/4 50/32/33
f 50/32/33 34/45/4 14/22/9 18/63/34
f 42/57/22 50/32/33 18/63/34 15/24/19
f 10/16/35 19/64/36 51/33/37 21/66/38
f 19/64/36 9/15/39 20/65/40 51/33/37
f 51/33/37 20/65/40 4/6/14 35/46/11
f 21/66/38 51/33/37 35/46/11 3/5/10
f 11/17/41 22/67/42 52/34/43 23/68/44
f 22/67/42 10/16/35 21/66/38 52/34/43
f 52/34/43 21/66/38 3/5/10 38/51/13
f 23/68/44 52/34/43 38/51/13 5/8/18
f 5/7/18 37/49/17 53/35/45 23/69/44
f 37/49/17 6/9/16 24/70/46 53/35/45
f 53/35/45 24/70/46 12/19/47 25/72/48
f 23/69/44 53/35/45 25/72/48 11/18/41
f 9/15/39 26/73/49 54/36/50 20/65/40
f 26/73/49 12/20/47 24/71/46 54/36/50
f 54/36/50 24/71/46 6/10/16 36/48/15
f 20/65/40 54/36/50 36/48/15 4/6/14
f 14/22/9 33/44/8 55/37/51 28/75/52
f 33/44/8 13/21/7 27/74/53 55/37/51
f 55/37/51 27/74/53 9/15/39 19/64/36
f 28/75/52 55/37/51 19/64/36 10/16/35
f 15/24/19 18/63/34 56/38/54 29/76/55
f 18/63/34 14/22/9 28/75/52 56/38/54
f 56/38/54 28/75/52 10/16/35 22/67/42
f 29/76/55 56/38/54 22/67/42 11/17/41
f 11/18/41 25/72/48 57/39/56 29/77/55
f 25/72/48 12/19/47 30/78/57 57/39/56
f 57/39/56 30/78/57 16/25/23 39/52/20
f 29/77/55 57/39/56 39/52/20 15/23/19
f 13/21/7 17/62/32 58/40/58 27/74/53
f 17/62/32 16/26/23 30/79/57 58/40/58
f 58/40/58 30/79/57 12/20/47 26/73/49
f 27/74/53 58/40/58 26/73/49 9/15/39
s 6
f 59/80/59 89/81/60 103/82/61 92/83/62
f 89/81/60 60/84/63 90/85/64 103/82/61
f 103/82/61 90/85/64 71/86/65 91/87/66
f 92/83/62 103/82/61 91/87/66 72/88/67
f 61/89/68 93/90/69 104/91/70 96/92/71
f 93/90/69 62/93/72 94/94/73 104/91/70
f 104/91/70 94/94/73 64/95/74 95/96/75
f 96/92/71 104/91/70 95/96/75 63/97/76
f 73/98/77 97/99/78 105/100/79 100/101/80
f 97/99/78 74/102/81 98/103/82 105/100/79
f 105/100/79 98/103/82 66/104/83 99/105/84
f 100/101/80 105/100/79 99/105/84 65/106/85
f 65/106/85 99/105/84 106/107/86 102/108/87
f 99/105/84 66/104/83 101/109/88 106/107/86
f 106/107/86 101/109/88 60/110/63 89/111/60
f 102/108/87 106/107/86 89/111/60 59/112/59
f 60/84/63 101/113/88 107/114/89 90/85/64
f 101/113/88 66/115/83 98/116/82 107/114/89
f 107/114/89 98/116/82 74/117/81 75/118/90
f 90/85/64 107/114/89 75/118/90 71/86/65
f 65/119/85 102/120/87 108/121/91 100/122/80
f 102/120/87 59/80/59 92/83/62 108/121/91
f 108/121/91 92/83/62 72/88/67 76/123/92
f 100/122/80 108/121/91 76/123/92 73/124/77
f 68/125/93 77/126/94 109/127/95 79/128/96
f 77/126/94 67/129/97 78/130/98 109/127/95
f 109/127/95 78/130/98 62/93/72 93/90/69
f 79/128/96 109/127/95 93/90/69 61/89/68
f 69/131/99 80/132/100 110/133/101 81/134/102
f 80/132/100 68/125/93 79/128/96 110/133/101
f 110/133/101 79/128/96 61/89/68 96/135/71
f 81/134/102 110/133/101 96/135/71 63/136/76
f 63/97/76 95/96/75 111/137/103 81/138/102
f 95/96/75 64/95/74 82/139/104 111/137/103
f 111/137/103 82/139/104 70/140/105 83/141/106
f 81/138/102 111/137/103 83/141/106 69/142/99
f 67/129/97 84/143/107 112/144/108 78/130/98
f 84/143/107 70/145/105 82/146/104 112/144/108
f 112/144/108 82/146/104 64/147/74 94/148/73
f 78/130/98 112/144/108 94/148/73 62/93/72
f 72/88/67 91/87/66 113/149/109 86/150/110
f 91/87/66 71/86/65 85/151/111 113/149/109
f 113/149/109 85/151/111 67/129/97 77/126/94
f 86/150/110 113/149/109 77/126/94 68/125/93
f 73/124/77 76/123/92 114/152/112 87/153/113
f 76/123/92 72/88/67 86/150/110 114/152/112
f 114/152/112 86/150/110 68/125/93 80/132/100
f 87/153/113 114/152/112 80/132/100 69/131/99
f 69/142/99 83/141/106 115/154/114 87/155/113
f 83/141/106 70/140/105 88/156/115 115/154/114
f 115/154/114 88/156/115 74/102/81 97/99/78
f 87/155/113 115/154/114 97/99/78 73/98/77
f 71/86/65 75/118/90 116/157/116 85/151/111
f 75/118/90 74/117/81 88/158/115 116/157/116
f 116/157/116 88/158/115 70/145/105 84/143/107
f 85/151/111 116/157/116 84/143/107 67/129/97
s 11
f 117/159/117 147/160/118 161/161/119 150/162/120
f 147/160/118 118/163/121 148/164/122 161/161/119
f 161/161/119 148/164/122 129/165/123 149/166/124
f 150/162/120 161/161/119 149/166/124 130/167/125
f 119/168/126 151/169/127 162/170/128 154/171/129
f 151/169/127 120/172/130 152/173/131 162/170/128
f 162/170/128 152/173/131 122/174/132 153/175/133
f 154/171/129 162/170/128 153/175/133 121/176/134
f 131/177/135 155/178/136 163/179/137 158/180/138
f 155/178/136 132/181/139 156/182/140 163/179/137
f 163/179/137 156/182/140 124/183/141 157/184/142
f 158/180/138 163/179/137 157/184/142 123/185/143
f 123/185/143 157/184/142 164/186/144 160/187/145
f 157/184/142 124/183/141 159/188/146 164/186/144
f 164/186/144 159/188/146 118/189/121 147/190/118
f 160/187/145 164/186/144 147/190/118 117/191/117
f 118/163/121 159/192/146 165/193/147 148/164/122
f 159/192/146 124/194/141 156/195/140 165/193/147
f 165/193/147 156/195/140 132/196/139 133/197/148
f 148/164/122 165/193/147 133/197/148 129/165/123
f 123/198/143 160/199/145 166/200/149 158/201/138
f 160/199/145 117/159/117 150/162/120 166/200/149
f 166/200/149 150/162/120 130/167/125 134/202/150
f 158/201/138 166/200/149 134/202/150 131/203/135
f 126/204/151 135/205/152 167/206/153 137/207/154
f 135/205/152 125/208/155 136/209/156 167/206/153
f 167/206/153 136/209/156 120/172/130 151/169/127
f 137/207/154 167/206/153 151/169/127 119/168/126
f 127/210/157 138/211/158 168/212/159 139/213/160
f 138/211/158 126/204/151 137/207/154 168/212/159
f 168/212/159 137/207/154 119/168/126 154/214/129
f 139/213/160 168/212/159 154/214/129 121/215/134
f 121/176/134 153/175/133 169/216/161 139/217/160
f 153/175/133 122/174/132 140/218/162 169/216/161
f 169/216/161 140/218/162 128/219/163 141/220/164
f 139/217/160 169/216/161 141/220/164 127/221/157
f 125/208/155 142/222/165 170/223/166 136/209/156
f 142/222/165 128/224/163 140/225/162 170/223/166
f 170/223/166 140/225/162 122/226/132 152/227/131
f 136/209/156 170/223/166 152/227/131 120/172/130
f 130/167/125 149/166/124 171/228/167 144/229/168
f 149/166/124 129/165/123 143/230/169 171/228/167
f 171/228/167 143/230/169 125/208/155 135/205/152
f 144/229/168 171/228/167 135/205/152 126/204/151
f 131/203/135 134/202/150 172/231/170 145/232/171
f 134/202/150 130/167/125 144/229/168 172/231/170
f 172/231/170 144/229/168 126/204/151 138/211/158
f 145/232/171 172/231/170 138/211/158 127/210/157
f 127/221/157 141/220/164 173/233/172 145/234/171
f 141/220/164 128/219/163 146/235/173 173/233/172
f 173/233/172 146/235/173 132/181/139 155/178/136
f 145/234/171 173/233/172 155/178/136 131/177/135
f 129/165/123 133/197/148 174/236/174 143/230/169
f 133/197/148 132/196/139 146/237/173 174/236/174
f 174/236/174 146/237/173 128/224/163 142/222/165
f 143/230/169 174/236/174 142/222/165 125/208/155
